<svg fill="#0cf5ff" height="200px" width="200px" version="1.1" id="Capa_1" xmlns="http://www.w3.org/2000/svg" xmlns:xlink="http://www.w3.org/1999/xlink" viewBox="0 0 483.2 483.2" xml:space="preserve"><g id="SVGRepo_bgCarrier" stroke-width="0"></g><g id="SVGRepo_tracerCarrier" stroke-linecap="round" stroke-linejoin="round"></g><g id="SVGRepo_iconCarrier"> <g> <g id="XMLID_1907_"> <path id="XMLID_1922_" d="M441.1,199.5c-19,0-35.1,12.6-40.3,30h-46.5c0.4,4,0.6,8,0.6,12.1c0,5.8-0.4,11.4-1.3,17h49 c6.5,14.8,21.3,25.1,38.5,25.1c23.2,0,42.1-18.8,42.1-42.1C483.2,218.4,464.3,199.5,441.1,199.5z"></path> <path id="XMLID_1921_" d="M81.6,258.6h47.9c-0.8-5.5-1.3-11.2-1.3-17c0-4.1,0.2-8.1,0.6-12.1H81.6C75.7,213.4,60.2,202,42.1,202 C18.9,202,0,220.8,0,244.1c0,23.3,18.8,42.1,42.1,42.1C60.2,286.1,75.7,274.6,81.6,258.6z"></path> <path id="XMLID_1920_" d="M227.1,81.6v47.6c4.8-0.6,9.6-0.9,14.5-0.9s9.8,0.3,14.5,0.9V81.6c16.1-5.9,27.6-21.4,27.6-39.5 c0-23.2-18.8-42.1-42.1-42.1c-23.2,0-42.1,18.8-42.1,42.1C199.5,60.2,211,75.7,227.1,81.6z"></path> <path id="XMLID_1918_" d="M331.4,172.4l33.7-33.7c15.5,7.2,34.5,4.4,47.3-8.4c16.4-16.4,16.4-43,0-59.4s-43-16.4-59.4,0 c-12.8,12.8-15.6,31.8-8.4,47.3l-21.5,21.4l0,0l-12.3,12.3C318.5,157.8,325.4,164.7,331.4,172.4z"></path> <path id="XMLID_1913_" d="M100.5,142.6c6.3,0,12.3-1.4,17.7-3.9l33.7,33.7c5.9-7.7,12.8-14.6,20.5-20.5l-33.7-33.7 c2.5-5.4,3.9-11.3,3.9-17.7c0-23.2-18.8-42.1-42.1-42.1c-23.2,0-42.1,18.8-42.1,42.1C58.5,123.8,77.3,142.6,100.5,142.6z"></path> <path id="XMLID_1912_" d="M151.8,310.8l-33.7,33.7c-5.4-2.5-11.3-3.9-17.7-3.9c-23.2,0-42.1,18.8-42.1,42.1s18.8,42.1,42.1,42.1 c23.2,0,42.1-18.8,42.1-42.1c0-6.3-1.4-12.3-3.9-17.7l33.6-33.7C164.7,325.4,157.8,318.5,151.8,310.8z"></path> <path id="XMLID_1911_" d="M382.7,340.6c-6.3,0-12.3,1.4-17.7,3.9l-33.7-33.7c-5.9,7.7-12.8,14.6-20.5,20.5l33.7,33.7 c-2.5,5.4-3.9,11.3-3.9,17.7c0,23.2,18.8,42.1,42.1,42.1c23.2,0,42.1-18.8,42.1-42.1C424.7,359.4,405.9,340.6,382.7,340.6z"></path> <path id="XMLID_1910_" d="M256.1,401.6v-29.3v-18.2c-4.8,0.6-9.6,0.9-14.5,0.9s-9.8-0.3-14.5-0.9v18.2v29.3 c-16.1,5.9-27.6,21.4-27.6,39.5c0,23.2,18.8,42.1,42.1,42.1c23.2,0,42.1-18.8,42.1-42.1C283.7,423,272.2,407.5,256.1,401.6z"></path> <path id="XMLID_1759_" d="M241.6,150.6c-50.3,0-91,40.7-91,91s40.7,91,91,91s91-40.7,91-91S291.9,150.6,241.6,150.6z M241.6,211.9 c-16.4,0-29.7,13.3-29.7,29.7c0,7.5-6.1,13.6-13.6,13.6s-13.6-6.1-13.6-13.6c0-31.3,25.5-56.8,56.8-56.8c7.5,0,13.6,6.1,13.6,13.6 C255.2,205.9,249.1,211.9,241.6,211.9z"></path> </g> </g> </g></svg>