<svg id="Layer_1" data-name="Layer 1" xmlns="http://www.w3.org/2000/svg" viewBox="0 0 683.09 683.09"><defs><style>.cls-1{fill:#231f20;}.cls-2{fill:#fff;}.cls-3{fill:#00aeef;}</style></defs><circle class="cls-1" cx="341.54" cy="341.54" r="341.54"/><path class="cls-2" d="M708.28,666.1a20.73,20.73,0,0,0-1.53-3.7c-2.35-5.23-4.75-10.45-7.16-15.68l-6.17-13.56c-2.17-4.81-4.4-9.68-6.57-14.5-2.41-5.28-4.76-10.51-7.16-15.73-3.29-7.22-6.58-14.44-9.81-21.67-2.7-6-5.4-11.91-8.16-17.9-2.23-4.87-4.46-9.81-6.63-14.68q-3.62-7.92-7.22-15.85c-3.29-7.16-6.52-14.38-9.81-21.6-3-6.76-6.1-13.51-9.21-20.2-3.29-7.28-6.58-14.5-9.87-21.72-3.81-8.34-7.57-16.67-11.39-25.07-2.87-6.34-5.75-12.74-8.63-19.08-1.64-3.58-3.28-7.22-4.93-10.8a.44.44,0,0,1-.06-.47c.18-.12.47-.06.77-.06h65.51a1.12,1.12,0,0,1,1.24.82q7.92,18.5,15.85,36.93c6.4,14.91,12.74,29.82,19.14,44.68l19.25,44.85c4.88,11.39,9.81,22.84,14.68,34.22,5,11.63,10,23.31,15,34.94,7.1,16.67,14.27,33.28,21.37,49.9.76,1.82,1.53,3.7,2.41,5.46-.12.12.23.47-.24.41h-.76Z" transform="translate(-198.46 -198.46)"/><path class="cls-2" d="M411.1,414c.29-.36.64-.18,1-.18h65.51c.77,0,.88.35,1.12.88,2.82,6.52,5.58,13,8.39,19.55l31.53,73.56q6.6,15.33,13.09,30.7,8.46,19.74,17,39.46c4.4,10.21,8.75,20.49,13.15,30.7,5.87,13.62,11.68,27.3,17.55,40.92,2.23,5.17,4.41,10.33,6.64,15.5.11.35.41.7.29,1.11H525.46c.12-.11.06-.23,0-.41-.35-.82-.7-1.64-1.11-2.4l-7.17-15.68-7.81-17.26c-2.52-5.58-5.1-11.21-7.63-16.85q-3-6.6-6-13.21c-2.34-5.22-4.75-10.45-7.16-15.67-2.58-5.7-5.16-11.39-7.75-17.14s-5.1-11.22-7.63-16.85c-2-4.47-4-8.87-6.1-13.33-2.24-4.93-4.53-9.92-6.76-14.85-3.05-6.76-6.1-13.51-9.15-20.2-2.53-5.58-5.11-11.21-7.64-16.85-1.11-2.46-2.17-5-3.4-7.4a2.54,2.54,0,0,0-.35-1.11c-8.58-18.85-17.09-37.63-25.66-56.48C413.09,418.35,412.21,416.12,411.1,414Z" transform="translate(-198.46 -198.46)"/><path class="cls-3" d="M617,666.1a1.58,1.58,0,0,0-.36-1l-25.18-55.48-42.68-93.87-25.95-57.13q-9.95-21.84-19.84-43.73c-.12-.3-.42-.59-.3-1a2.12,2.12,0,0,1,1.06-.06h64.87a1.29,1.29,0,0,1,1.47.94q25.45,59.36,50.84,118.65,15.58,36.36,31.17,72.85,12.6,29.33,25.13,58.65c.18.41.47.77.29,1.18Z" transform="translate(-198.46 -198.46)"/><path class="cls-3" d="M389.26,613.5q-9.87,26.32-19.73,52.66H310.82a1.86,1.86,0,0,1,.3-1.12Q324,632.8,336.77,600.52q21.75-54.69,43.56-109.43l30.24-76a4.32,4.32,0,0,1,.53-1.05c1.11,2.11,2,4.34,3,6.57,8.57,18.85,17.08,37.63,25.66,56.48a1.81,1.81,0,0,1,.35,1.11,2.18,2.18,0,0,0-.47,1.06Q432.82,497.54,426,515.8" transform="translate(-198.46 -198.46)"/></svg>