<?xml version="1.0" encoding="utf-8"?>
<!-- Generator: Adobe Illustrator 25.2.3, SVG Export Plug-In . SVG Version: 6.00 Build 0)  -->
<svg version="1.1" id="_x32_" xmlns="http://www.w3.org/2000/svg" xmlns:xlink="http://www.w3.org/1999/xlink" x="0px" y="0px"
	 viewBox="0 0 512 512" style="enable-background:new 0 0 512 512;" xml:space="preserve">
<style type="text/css">
	.st0{fill:#00AEEF;}
</style>
<g id="SVGRepo_bgCarrier">
</g>
<g id="SVGRepo_tracerCarrier">
</g>
<g id="SVGRepo_iconCarrier">
	<g>
		<path class="st0" d="M496,294c9-0.7,16-8.2,16-17.3v-41.4c0-9.1-7-16.6-16-17.3l-54.8-4.3c-3.5-0.3-6.5-2.5-7.8-5.7l-18-43.5
			c-1.3-3.2-0.8-6.9,1.5-9.5l35.8-41.8c5.9-6.9,5.5-17.1-0.9-23.5l-29.2-29.2c-6.4-6.4-16.7-6.8-23.5-0.9L357,95.2
			c-2.6,2.3-6.3,2.8-9.5,1.5l-43.5-18c-3.2-1.3-5.4-4.4-5.7-7.8L294,16c-0.7-9-8.2-16-17.3-16h-41.4c-9.1,0-16.6,7-17.3,16
			l-4.3,54.8c-0.3,3.5-2.5,6.5-5.7,7.8l-43.5,18c-3.2,1.3-6.9,0.8-9.6-1.5l-41.8-35.8c-6.9-5.9-17.1-5.5-23.5,0.9L60.4,89.6
			c-6.4,6.4-6.8,16.7-0.9,23.5L95.2,155c2.2,2.6,2.8,6.3,1.5,9.5l-18,43.5c-1.3,3.2-4.4,5.4-7.8,5.7L16,218c-9,0.7-16,8.2-16,17.3
			v41.4c0,9.1,7,16.6,16,17.3l54.8,4.3c3.5,0.3,6.5,2.5,7.8,5.7l18,43.5c1.3,3.2,0.8,6.9-1.5,9.6l-35.8,41.8
			c-5.9,6.9-5.5,17.1,0.9,23.5l29.2,29.2c6.4,6.4,16.7,6.8,23.5,0.9l41.8-35.8c2.7-2.2,6.3-2.8,9.6-1.5l43.5,18
			c3.2,1.3,5.4,4.4,5.7,7.8L218,496c0.7,9,8.2,16,17.3,16h41.4c9.1,0,16.6-7,17.3-16l4.3-54.8c0.3-3.5,2.5-6.5,5.7-7.8l43.5-18
			c3.2-1.3,6.9-0.8,9.5,1.5l41.8,35.8c6.9,5.9,17.1,5.5,23.5-0.9l29.2-29.2c6.4-6.4,6.8-16.7,0.9-23.5L416.8,357
			c-2.2-2.6-2.8-6.3-1.5-9.6l18-43.5c1.3-3.2,4.3-5.4,7.8-5.7L496,294z M256,342.5c-23.1,0-44.8-9-61.2-25.3
			c-16.3-16.4-25.3-38.1-25.3-61.2c0-23.1,9-44.8,25.3-61.2c16.3-16.4,38.1-25.3,61.2-25.3c23.1,0,44.8,9,61.2,25.3
			c16.3,16.3,25.3,38.1,25.3,61.2c0,23.1-9,44.8-25.3,61.2C300.8,333.5,279.1,342.5,256,342.5z"/>
	</g>
</g>
</svg>
