<?xml version="1.0" encoding="utf-8"?>
<!-- Generator: Adobe Illustrator 25.2.3, SVG Export Plug-In . SVG Version: 6.00 Build 0)  -->
<svg version="1.1" id="Layer_1" xmlns="http://www.w3.org/2000/svg" xmlns:xlink="http://www.w3.org/1999/xlink" x="0px" y="0px"
	 viewBox="0 0 32 32" style="enable-background:new 0 0 32 32;" xml:space="preserve">
<style type="text/css">
	.st0{fill:#00AEEF;stroke:#00AEEF;}
</style>
<g id="SVGRepo_bgCarrier">
</g>
<g id="SVGRepo_tracerCarrier">
</g>
<g id="SVGRepo_iconCarrier">
	<path class="st0" d="M27,12.9c-0.1-2.2-1.1-4-2.5-5.1c-1.9-1.4-4.4-1.7-6.5-0.1c-0.7,0.5-1.4,1.2-1.9,2.2c-0.6-0.9-1.2-1.7-1.9-2.2
		c-2.1-1.6-4.7-1.3-6.5,0.1C6.1,8.9,5.1,10.7,5,12.9c0,1.2,0.1,2.5,0.8,3.8c1,2.1,5.8,6.7,10.2,10.7l0,0l0,0l0,0l0,0
		c4.4-4,9.2-8.6,10.2-10.7C26.9,15.4,27,14.1,27,12.9z"/>
</g>
</svg>
