<?xml version="1.0" encoding="utf-8"?>
<!-- Generator: Adobe Illustrator 25.2.3, SVG Export Plug-In . SVG Version: 6.00 Build 0)  -->
<svg version="1.1" id="Layer_1" xmlns="http://www.w3.org/2000/svg" xmlns:xlink="http://www.w3.org/1999/xlink" x="0px" y="0px"
	 viewBox="0 0 780.7 429.9" style="enable-background:new 0 0 780.7 429.9;" xml:space="preserve">
<style type="text/css">
	.st0{fill:#FFFFFF;}
	.st1{fill:#00AEEF;}
</style>
<path class="st0" d="M677,429.8c-0.5-2.3-1.7-4.2-2.6-6.3c-4-8.9-8.1-17.8-12.2-26.7l-10.5-23.1c-3.7-8.2-7.5-16.5-11.2-24.7
	c-4.1-9-8.1-17.9-12.2-26.8c-5.6-12.3-11.2-24.6-16.7-36.9c-4.6-10.2-9.2-20.3-13.9-30.5c-3.8-8.3-7.6-16.7-11.3-25
	c-4.1-9-8.2-18-12.3-27c-5.6-12.2-11.1-24.5-16.7-36.8c-5.2-11.5-10.4-23-15.7-34.4c-5.6-12.4-11.2-24.7-16.8-37
	c-6.5-14.2-12.9-28.4-19.4-42.7c-4.9-10.8-9.8-21.7-14.7-32.5c-2.8-6.1-5.6-12.3-8.4-18.4c-0.2-0.2-0.2-0.5-0.1-0.8
	c0.3-0.2,0.8-0.1,1.3-0.1c37.2,0,74.4,0,111.6,0c1-0.1,1.9,0.5,2.1,1.4c9,21,18,42,27,62.9c10.9,25.4,21.7,50.8,32.6,76.1
	c10.9,25.4,21.8,50.8,32.8,76.4c8.3,19.4,16.7,38.9,25,58.3c8.5,19.8,17,39.7,25.5,59.5c12.1,28.4,24.3,56.7,36.4,85
	c1.3,3.1,2.6,6.3,4.1,9.3c-0.2,0.2,0.4,0.8-0.4,0.7c-0.4,0-0.8,0-1.3,0L677,429.8z"/>
<path class="st0" d="M170.8,0.4c0.5-0.6,1.1-0.3,1.7-0.3c4.1,0,8.1,0,12.2,0c33.1,0,66.2,0,99.4,0c1.3,0,1.5,0.6,1.9,1.5
	c4.8,11.1,9.5,22.2,14.3,33.3L354,160.2c7.5,17.4,14.9,34.8,22.3,52.3c9.6,22.4,19.2,44.8,28.9,67.2c7.5,17.4,14.9,34.9,22.4,52.3
	c10,23.2,19.9,46.5,29.9,69.7c3.8,8.8,7.5,17.6,11.3,26.4c0.2,0.6,0.7,1.2,0.5,1.9H365.6c0.2-0.2,0.1-0.4,0-0.7
	c-0.6-1.4-1.2-2.8-1.9-4.1l-12.2-26.7l-13.3-29.4c-4.3-9.5-8.7-19.1-13-28.7c-3.4-7.5-6.8-15-10.2-22.5c-4-8.9-8.1-17.8-12.2-26.7
	c-4.4-9.7-8.8-19.4-13.2-29.2c-4.3-9.6-8.7-19.1-13-28.7c-3.5-7.6-6.9-15.1-10.4-22.7c-3.8-8.4-7.7-16.9-11.5-25.3
	c-5.2-11.5-10.4-23-15.6-34.4c-4.3-9.5-8.7-19.1-13-28.7c-1.9-4.2-3.7-8.5-5.8-12.6c0-0.7-0.3-1.3-0.6-1.9
	c-14.6-32.1-29.1-64.1-43.7-96.2C174.2,7.8,172.7,4,170.8,0.4z"/>
<path class="st1" d="M521.5,429.8c0-0.6-0.2-1.2-0.6-1.7c-14.3-31.5-28.6-63-42.9-94.5l-72.7-159.9l-44.2-97.3
	c-11.3-24.8-22.6-49.7-33.8-74.5c-0.2-0.5-0.7-1-0.5-1.7c0.6-0.2,1.2-0.2,1.8-0.1c36.8,0,73.6,0,110.5,0c1.1-0.2,2.2,0.5,2.5,1.6
	c28.9,67.4,57.7,134.8,86.6,202.1c17.7,41.3,35.4,82.7,53.1,124.1c14.3,33.3,28.5,66.6,42.8,99.9c0.3,0.7,0.8,1.3,0.5,2H521.5z"/>
<path class="st1" d="M133.6,340.2c-11.2,29.9-22.4,59.8-33.6,89.7H0c0-0.7,0.1-1.3,0.5-1.9c14.6-36.6,29.1-73.3,43.7-109.9
	c24.7-62.1,49.5-124.3,74.2-186.4L169.9,2.2c0.2-0.6,0.5-1.2,0.9-1.8c1.9,3.6,3.5,7.4,5.2,11.2c14.6,32.1,29.1,64.1,43.7,96.2
	c0.4,0.5,0.6,1.2,0.6,1.9c-0.4,0.5-0.7,1.1-0.8,1.8c-7.8,20.8-15.6,41.6-23.4,62.3"/>
</svg>
