<?xml version="1.0" encoding="utf-8"?>
<!-- Generator: Adobe Illustrator 25.2.3, SVG Export Plug-In . SVG Version: 6.00 Build 0)  -->
<svg version="1.1" id="Layer_1" xmlns="http://www.w3.org/2000/svg" xmlns:xlink="http://www.w3.org/1999/xlink" x="0px" y="0px"
	 viewBox="0 0 28 32" style="enable-background:new 0 0 28 32;" xml:space="preserve">
<style type="text/css">
	.st0{fill-rule:evenodd;clip-rule:evenodd;fill:#00AEEF;}
</style>
<path class="st0" d="M13.6,31.9c0.2,0.1,0.4,0.1,0.6,0.1c0.2,0,0.4-0.1,0.6-0.1l5.7-3.1c1.6-0.9,2.9-1.8,3.9-3
	c2.2-2.4,3.3-5.6,3.3-8.8L27.5,6.4c0-1.2-0.8-2.3-2-2.7L14.9,0.2c-0.6-0.2-1.3-0.2-2,0L2.4,3.9c-1.2,0.4-2,1.5-2,2.7l0.1,10.6
	c0,3.2,1.2,6.3,3.4,8.8c1,1.1,2.3,2.1,3.9,2.9L13.6,31.9z M12.1,19.4c0.2,0.2,0.5,0.3,0.9,0.3c0.3,0,0.6-0.1,0.9-0.3l6.2-6.2
	c0.5-0.5,0.5-1.2,0-1.7c-0.5-0.5-1.2-0.5-1.7,0l-5.4,5.3l-2.2-2.1c-0.5-0.5-1.2-0.5-1.7,0c-0.5,0.5-0.5,1.2,0,1.7L12.1,19.4z"/>
</svg>
